# xmcd CD database file
#
# Track frame offsets:
#	150
#	18735
#	33342
#	50435
#	66950
#	82229
#	102242
#	118358
#	143737
#	153019
#	171803
#	179683
#
# Disc length: 2675 seconds
#
# Revision: 0
# Processed by: cddbd v1.5.2PL0 Copyright (c) Steve Scherf et al.
# Submitted via: CDex 1.70beta2
#
DISCID=a80a710c
DTITLE=INO hidefumi - Satisfaction
DYEAR=2006
DGENRE=Jazz
TTITLE0=Spartacus
TTITLE1=What are you doing the rest of your life
TTITLE2=Why are we at war
TTITLE3=Billie Jean
TTITLE4=Behind the rainbow
TTITLE5=Midnight at oasis
TTITLE6=Love theme from spartacus #piano
TTITLE7=Madsummer Reminiscence
TTITLE8=Solid Foundation
TTITLE9=Just the two of us
TTITLE10=Soshu-yakyoku
TTITLE11=Never can say goodbye
EXTD=YEAR: 2006
EXTT0=
EXTT1=
EXTT2=
EXTT3=
EXTT4=
EXTT5=
EXTT6=
EXTT7=
EXTT8=
EXTT9=
EXTT10=
EXTT11=
PLAYORDER=
